<?xml version="1.0" standalone="no"?>
<!DOCTYPE svg PUBLIC "-//W3C//DTD SVG 20010904//EN"
 "http://www.w3.org/TR/2001/REC-SVG-20010904/DTD/svg10.dtd">
<svg version="1.0" xmlns="http://www.w3.org/2000/svg"
 width="16.000000pt" height="16.000000pt" viewBox="0 0 16.000000 16.000000"
 preserveAspectRatio="xMidYMid meet">
<metadata>
Created by potrace 1.11, written by Peter Selinger 2001-2013
</metadata>
<g transform="translate(0.000000,16.000000) scale(0.000781,-0.000781)"
fill="#000000" stroke="none">
<path d="M9848 20475 c-2 -2 -67 -6 -145 -9 -78 -4 -161 -8 -185 -11 -24 -2
-79 -6 -123 -10 -83 -7 -95 -8 -210 -19 -38 -4 -88 -9 -109 -12 -21 -2 -55 -6
-75 -9 -20 -3 -55 -7 -78 -10 -60 -7 -113 -14 -148 -19 -16 -3 -50 -8 -75 -11
-25 -3 -94 -15 -155 -25 -60 -11 -126 -22 -145 -25 -19 -3 -91 -17 -160 -31
-69 -14 -136 -28 -150 -30 -14 -3 -33 -7 -42 -10 -10 -3 -30 -7 -45 -10 -84
-14 -472 -114 -678 -175 -189 -56 -608 -197 -730 -246 -436 -176 -445 -180
-613 -259 -52 -24 -96 -44 -98 -44 -6 0 -328 -161 -441 -221 -199 -105 -614
-348 -731 -428 -15 -10 -90 -60 -167 -111 -267 -179 -546 -385 -769 -568 -158
-130 -275 -229 -291 -246 -5 -6 -28 -26 -50 -45 -123 -104 -492 -463 -661
-642 -92 -98 -283 -313 -316 -354 -12 -16 -30 -37 -38 -46 -28 -29 -65 -74
-168 -204 -57 -71 -111 -139 -121 -150 -159 -193 -568 -798 -712 -1052 -11
-18 -29 -50 -41 -70 -149 -256 -410 -768 -518 -1018 -270 -624 -459 -1198
-608 -1850 -45 -196 -120 -594 -137 -725 -3 -25 -8 -56 -10 -70 -5 -28 -11
-77 -20 -160 -3 -30 -8 -62 -10 -70 -2 -8 -7 -42 -10 -75 -3 -33 -7 -82 -10
-110 -10 -92 -14 -129 -20 -220 -4 -49 -8 -100 -10 -112 -26 -163 -26 -1200 0
-1448 3 -22 7 -74 10 -115 9 -130 25 -290 46 -450 5 -42 12 -94 14 -115 3 -22
7 -51 10 -65 5 -23 10 -59 20 -135 6 -46 59 -343 69 -390 1 -5 5 -23 9 -40 4
-16 9 -42 12 -57 13 -68 17 -87 32 -153 49 -216 138 -555 188 -715 20 -63 38
-122 40 -130 12 -45 91 -277 145 -425 204 -558 483 -1152 768 -1635 31 -52 63
-107 72 -121 8 -14 42 -70 75 -123 33 -54 65 -105 70 -114 18 -30 189 -287
195 -292 3 -3 25 -34 49 -70 42 -62 281 -385 314 -426 9 -10 46 -57 84 -104
62 -79 280 -339 292 -350 3 -3 26 -27 50 -55 297 -335 716 -744 1036 -1012 28
-22 86 -71 130 -108 200 -166 768 -585 794 -585 5 0 11 -3 13 -7 3 -7 63 -50
110 -78 9 -5 87 -54 174 -108 86 -55 177 -110 203 -124 25 -14 51 -29 56 -33
35 -28 380 -212 595 -319 277 -137 304 -149 550 -253 91 -38 185 -78 210 -88
202 -85 781 -280 1025 -345 33 -9 67 -18 75 -20 256 -70 656 -160 795 -180 22
-3 46 -8 54 -11 8 -2 30 -7 50 -10 20 -3 42 -7 49 -9 7 -3 40 -7 75 -11 34 -3
65 -8 68 -10 8 -5 240 -37 354 -50 28 -3 64 -7 80 -9 17 -2 59 -7 95 -10 36
-4 81 -8 100 -11 19 -2 73 -6 120 -10 47 -3 103 -7 125 -9 266 -26 1115 -27
1435 0 25 2 85 6 134 10 50 4 97 8 105 10 9 1 52 6 96 10 44 4 91 8 105 10 14
2 54 6 90 10 36 3 72 8 80 10 8 2 40 7 70 10 30 3 62 8 70 10 8 2 37 7 63 10
58 6 214 32 277 45 25 5 61 12 80 14 19 3 46 8 60 11 14 3 36 7 50 10 42 8 74
15 95 19 445 95 855 208 1255 347 157 55 328 118 367 135 17 8 34 14 38 14 4
0 21 6 38 14 18 8 88 38 156 66 68 28 157 67 198 86 41 18 76 34 78 34 13 0
443 211 550 270 28 15 88 48 135 73 47 25 109 59 138 76 29 17 55 31 58 31 2
0 21 11 42 24 20 13 109 68 197 122 279 170 549 354 820 558 118 89 255 196
265 206 3 3 27 24 55 45 27 22 55 45 61 50 6 6 35 30 64 55 217 182 397 348
630 581 155 156 327 337 416 439 21 25 41 47 45 50 13 12 233 275 305 365 110
137 250 324 356 474 48 69 91 131 95 136 12 15 93 138 175 265 66 102 298 487
298 495 0 1 27 51 61 111 113 202 283 551 419 859 104 235 347 893 375 1015 3
16 66 230 91 312 16 55 88 343 110 443 9 39 17 77 19 85 7 30 43 206 48 235 3
17 10 55 17 85 6 30 12 66 15 80 2 14 11 70 20 125 9 55 18 111 20 125 2 14 7
45 11 70 4 25 8 56 9 70 2 14 6 48 9 75 4 28 9 66 11 85 2 19 7 53 9 75 10 76
26 240 32 325 3 47 7 103 9 125 13 148 20 401 20 720 0 372 -9 614 -30 845 -3
30 -7 84 -10 120 -3 36 -7 79 -10 95 -2 17 -7 61 -11 100 -3 38 -8 78 -10 88
-2 11 -6 45 -10 76 -3 31 -8 65 -10 75 -2 11 -8 56 -14 100 -18 130 -47 302
-85 491 -13 66 -27 135 -30 154 -3 19 -8 38 -10 41 -3 4 -7 24 -11 45 -3 20
-28 125 -55 233 -27 109 -51 204 -53 212 -48 196 -199 661 -311 955 -139 366
-209 524 -412 930 -184 370 -172 348 -326 610 -116 197 -373 602 -397 625 -3
3 -25 34 -49 70 -47 68 -330 451 -341 460 -3 3 -21 25 -40 50 -19 25 -37 47
-40 50 -3 3 -23 28 -45 55 -22 28 -46 57 -55 66 -8 8 -31 35 -50 59 -19 24
-42 50 -50 58 -8 9 -28 31 -43 51 -29 36 -142 162 -252 280 -109 117 -419 424
-525 521 -58 52 -112 102 -120 110 -8 8 -44 40 -80 70 -36 30 -67 57 -70 60
-8 9 -141 121 -190 160 -24 19 -48 40 -54 46 -28 27 -356 276 -486 368 -358
254 -653 440 -1005 634 -176 97 -601 312 -705 356 -25 11 -90 39 -145 64 -156
69 -446 185 -595 237 -74 26 -144 51 -155 56 -11 4 -67 24 -125 43 -94 30
-165 52 -375 116 -310 94 -905 226 -1245 275 -14 2 -38 6 -55 9 -87 14 -140
21 -230 31 -27 3 -61 8 -75 10 -14 2 -50 7 -80 10 -30 3 -71 7 -90 10 -19 2
-69 7 -110 11 -41 3 -91 7 -110 9 -31 3 -80 7 -280 21 -66 5 -957 13 -962 9z"/>
</g>
</svg>
